<svg aria-hidden="true" style="position: absolute; width: 0; height: 0; overflow: hidden;" version="1.1" xmlns="http://www.w3.org/2000/svg" xmlns:xlink="http://www.w3.org/1999/xlink">
<defs>
<symbol id="icon-lock" viewBox="0 0 15 16">
<path fill="none" opacity="0.8" stroke="#fff" style="stroke: var(--color1, #fff)" stroke-linejoin="round" stroke-linecap="round" stroke-miterlimit="4" stroke-width="1.28" d="M10.88 7.36v-1.92c0-1.767-1.433-3.2-3.2-3.2s-3.2 1.433-3.2 3.2v0 1.92M4.992 13.76h5.376c1.075 0 1.613 0 2.024-0.209 0.363-0.188 0.651-0.476 0.834-0.828l0.005-0.011c0.209-0.411 0.209-0.948 0.209-2.024v-0.256c0-1.075 0-1.613-0.209-2.024-0.188-0.363-0.476-0.651-0.828-0.834l-0.011-0.005c-0.411-0.209-0.948-0.209-2.024-0.209h-5.376c-1.075 0-1.613 0-2.024 0.209-0.363 0.188-0.651 0.476-0.834 0.828l-0.005 0.011c-0.209 0.411-0.209 0.948-0.209 2.024v0.256c0 1.075 0 1.613 0.209 2.024 0.188 0.363 0.476 0.651 0.828 0.834l0.011 0.005c0.411 0.209 0.948 0.209 2.024 0.209z"></path>
</symbol>
<symbol id="icon-mail" viewBox="0 0 15 16">
<path fill="none" opacity="0.8" stroke="#fafafa" style="stroke: var(--color2, #fafafa)" stroke-linejoin="round" stroke-linecap="round" stroke-miterlimit="4" stroke-width="1.28" d="M1.28 4.8l5.226 3.658c0.423 0.296 0.635 0.445 0.865 0.502 0.093 0.024 0.2 0.038 0.31 0.038s0.217-0.014 0.319-0.040l-0.009 0.002c0.23-0.058 0.442-0.205 0.865-0.502l5.226-3.658M4.352 13.12h6.656c1.075 0 1.613 0 2.024-0.209 0.363-0.188 0.651-0.476 0.834-0.828l0.005-0.011c0.209-0.411 0.209-0.948 0.209-2.024v-4.096c0-1.075 0-1.613-0.209-2.024-0.188-0.363-0.476-0.651-0.828-0.834l-0.011-0.005c-0.411-0.209-0.948-0.209-2.024-0.209h-6.656c-1.075 0-1.613 0-2.024 0.209-0.363 0.188-0.651 0.476-0.834 0.828l-0.005 0.011c-0.209 0.411-0.209 0.948-0.209 2.024v4.096c0 1.075 0 1.613 0.209 2.024 0.188 0.363 0.476 0.651 0.828 0.834l0.011 0.005c0.411 0.209 0.948 0.209 2.024 0.209z"></path>
</symbol>
<symbol id="icon-user" viewBox="0 0 15 16">
<path fill="none" opacity="0.8" stroke="#fff" style="stroke: var(--color1, #fff)" stroke-linejoin="round" stroke-linecap="round" stroke-miterlimit="4" stroke-width="1.28" d="M12.8 13.76c0-0.893 0-1.34-0.11-1.703-0.254-0.82-0.887-1.453-1.689-1.702l-0.018-0.005c-0.364-0.11-0.81-0.11-1.703-0.11h-3.2c-0.893 0-1.34 0-1.703 0.11-0.82 0.254-1.453 0.887-1.702 1.689l-0.005 0.018c-0.11 0.364-0.11 0.81-0.11 1.703M10.56 5.12c0 1.591-1.289 2.88-2.88 2.88s-2.88-1.289-2.88-2.88v0c0-1.591 1.289-2.88 2.88-2.88s2.88 1.289 2.88 2.88v0z"></path>
</symbol>
</defs>
</svg>
